<svg width="42" height="45" viewBox="0 0 42 45" fill="none" xmlns="http://www.w3.org/2000/svg">
<path d="M27.8441 16.9662C27.9073 16.7416 28.0214 16.5824 28.1863 16.4886C28.3718 16.383 28.6011 16.3064 28.8742 16.2588C28.9682 16.2322 29.2986 16.1655 29.8654 16.0586C30.4482 15.9559 30.9911 15.903 31.4941 15.8997C31.7293 15.6177 32.0211 15.4112 32.3695 15.2803C32.7341 15.1537 33.1498 15.1529 33.6167 15.278C33.8904 15.3513 34.0999 15.4679 34.2454 15.6276C34.3954 15.7714 34.4801 15.9321 34.4993 16.1097C35.1491 16.0768 35.8926 16.1725 36.7298 16.3968C37.7762 16.6772 38.6145 17.1434 39.2448 17.7954C39.8956 18.4356 40.3059 19.1925 40.4756 20.0662C40.6615 20.9441 40.6189 21.8644 40.3481 22.827C40.294 23.0196 40.1953 23.2778 40.0522 23.6018C38.336 27.1792 34.9906 28.3014 30.0161 26.9685C29.5653 26.8477 29.2375 26.7513 29.0328 26.6791L28.3939 27.7502C27.7082 28.895 27.3609 29.4834 27.3519 29.5155C27.0651 30.0425 26.742 30.4218 26.3826 30.6533C26.0392 30.8891 25.5697 30.9272 24.9741 30.7676C24.475 30.6339 24.1296 30.4464 23.9377 30.2052C23.7575 29.9844 23.7238 29.6734 23.8366 29.2723C23.8863 29.0959 23.9578 28.9339 24.0513 28.7864L30.135 18.3306C29.2302 18.347 28.5018 18.5055 27.9497 18.8061C27.8268 18.5662 27.7519 18.2787 27.725 17.9436C27.7186 17.5969 27.7584 17.2711 27.8441 16.9662ZM30.1696 24.5769C30.3582 24.6447 30.6296 24.7261 30.9838 24.821C32.5132 25.2308 33.8019 25.2655 34.8498 24.9252C35.9138 24.5892 36.7439 23.854 37.34 22.7198C37.465 22.46 37.5456 22.2659 37.5817 22.1375C37.8345 21.2391 37.7722 20.5064 37.3951 19.9395C37.0224 19.3565 36.3853 18.9443 35.4837 18.7027C35.0008 18.5733 34.3494 18.5195 33.5296 18.5414C32.2021 20.86 31.0821 22.8718 30.1696 24.5769Z" fill="white"/>
<path d="M28.5 29.025C28.7 29.0583 28.9333 29.2417 29.2 29.575C29.4667 29.9083 29.6 30.2167 29.6 30.5C29.6 30.6833 29.4583 30.825 29.175 30.925C29.075 30.9583 28.9083 31.0167 28.675 31.1C28.4583 31.2 28.2583 31.2667 28.075 31.3C27.8917 31.3333 27.6833 31.35 27.45 31.35C27.1 31.35 26.8333 31.3083 26.65 31.225C26.1833 31.025 25.575 30.5583 24.825 29.825C24.075 29.0917 23.35 28.2583 22.65 27.325C21.95 26.375 21.4333 25.4917 21.1 24.675H20.95C20.4833 24.675 20.1417 24.6667 19.925 24.65C19.425 26.5 19.0083 28.1167 18.675 29.5C18.5417 30.0833 18.3333 30.5333 18.05 30.85C17.7833 31.1667 17.3417 31.325 16.725 31.325C16.2083 31.325 15.825 31.2333 15.575 31.05C15.3417 30.8833 15.225 30.5917 15.225 30.175C15.225 29.9917 15.25 29.8167 15.3 29.65L18.325 17.975C17.4583 18.225 16.8 18.5667 16.35 19C16.1667 18.8 16.0167 18.5417 15.9 18.225C15.8 17.8917 15.75 17.5667 15.75 17.25C15.75 17.0167 15.8167 16.8333 15.95 16.7C16.1 16.55 16.3 16.4167 16.55 16.3C16.6333 16.25 16.9333 16.1 17.45 15.85C17.9833 15.6 18.4917 15.4083 18.975 15.275C19.125 14.9417 19.35 14.6667 19.65 14.45C19.9667 14.2333 20.3667 14.125 20.85 14.125C21.1333 14.125 21.3667 14.1833 21.55 14.3C21.7333 14.4 21.8583 14.5333 21.925 14.7C22.5417 14.5 23.2833 14.4 24.15 14.4C25.2167 14.4 26.1417 14.6167 26.925 15.05C27.725 15.4667 28.3333 16.0083 28.75 16.675C29.1667 17.3417 29.375 18.0167 29.375 18.7C29.375 20.2167 28.8833 21.4333 27.9 22.35C26.9333 23.25 25.6833 23.8917 24.15 24.275C24.5 24.875 24.9667 25.55 25.55 26.3C26.1333 27.05 26.6833 27.6917 27.2 28.225C27.7333 28.7417 28.0833 29 28.25 29L28.5 29.025ZM21.65 17.3C21.1667 19.2333 20.7667 20.9083 20.45 22.325C20.65 22.3417 20.9333 22.35 21.3 22.35C22.1 22.35 22.9 22.2333 23.7 22C24.5 21.75 25.1667 21.3833 25.7 20.9C26.25 20.4167 26.525 19.8167 26.525 19.1C26.525 18.45 26.2583 17.9333 25.725 17.55C25.1917 17.15 24.475 16.95 23.575 16.95C23.075 16.95 22.4333 17.0667 21.65 17.3Z" fill="#00C897"/>
<path d="M13.8408 13.7683C14.2754 13.6518 14.6673 13.5985 15.0163 13.6085C15.3815 13.6142 15.6073 13.709 15.6936 13.8929C15.8065 14.294 15.9201 15.9285 16.0344 18.7964C16.1488 21.6643 16.2257 24.2144 16.2651 26.4468C16.2842 27.6839 15.9571 28.7981 15.2838 29.7894C14.6221 30.7604 13.5749 31.4378 12.1421 31.8217C10.9669 32.1366 9.97222 32.1702 9.1581 31.9225C8.35557 31.6545 7.73975 31.2501 7.31065 30.7095C6.86545 30.1732 6.55934 29.6082 6.39234 29.0146C6.13054 28.084 6.06171 27.3778 6.18583 26.896C6.28934 26.4024 6.63088 26.078 7.21043 25.9227C7.77389 25.7717 8.23917 25.7333 8.60629 25.8075C8.96888 25.8656 9.18404 26.015 9.25174 26.2556C9.29688 26.4161 9.24031 26.7073 9.08203 27.1293C8.91217 27.5716 8.8498 27.873 8.89494 28.0334C9.12319 28.7832 9.43892 29.2593 9.84214 29.4618C10.2615 29.66 10.7689 29.6793 11.3646 29.5197C11.7832 29.4076 12.1382 29.1313 12.4298 28.6908C12.7375 28.2461 12.8857 27.5421 12.8744 26.5789L12.6778 16.9267C11.6811 17.3835 10.8649 17.7747 10.2294 18.1003C9.87581 18.0743 9.57889 17.9727 9.33861 17.7955C9.10991 17.598 8.95043 17.3388 8.86016 17.0179C8.72926 16.5526 8.93937 16.0995 9.49049 15.6585C10.6901 15.0611 11.5684 14.6446 12.1253 14.4091C12.6778 14.1575 13.2496 13.9439 13.8408 13.7683Z" fill="white"/>
</svg>
